<svg width="48" height="48" viewBox="0 0 48 48" fill="none" xmlns="http://www.w3.org/2000/svg">
<g clip-path="url(#clip0)">
<path d="M47.0198 22.5586L36.1659 11.0593C35.4988 10.3518 34.3853 10.3195 33.6778 10.9872C32.9714 11.6543 32.9386 12.7684 33.6062 13.4753L43.3202 23.766L33.6062 34.0579C32.9386 34.7648 32.9714 35.8784 33.6778 36.546C34.0181 36.8669 34.4528 37.0259 34.8858 37.0259C35.3535 37.0259 35.8204 36.8405 36.166 36.475L47.0199 24.9751C47.6599 24.2964 47.6599 23.2368 47.0198 22.5586Z" fill="black"/>
<path d="M14.4587 34.0574L4.74536 23.7661L14.4587 13.4749C15.1258 12.768 15.0935 11.6538 14.3865 10.9868C13.6801 10.3197 12.5654 10.352 11.8984 11.0589L1.04449 22.5582C0.404441 23.2364 0.404441 24.2966 1.04449 24.9748L11.8989 36.4746C12.2451 36.8413 12.7115 37.0261 13.1791 37.0261C13.6121 37.0261 14.0469 36.8665 14.3865 36.5456C15.0941 35.8785 15.1258 34.7644 14.4587 34.0574Z" fill="black"/>
<path d="M26.8797 5.129C25.9193 4.98352 25.0204 5.64291 24.8738 6.60335L19.7108 40.3971C19.5642 41.3581 20.2242 42.2564 21.1852 42.403C21.2756 42.4165 21.3647 42.423 21.4533 42.423C22.3082 42.423 23.0579 41.7994 23.1911 40.9287L28.3541 7.13495C28.5007 6.17387 27.8407 5.27567 26.8797 5.129Z" fill="black"/>
</g>
<defs>
<clipPath id="clip0">
<rect width="46.9355" height="46.9355" fill="white" transform="translate(0.564453 0.29834)"/>
</clipPath>
</defs>
</svg>
