<svg width="43" height="45" viewBox="0 0 43 45" fill="none" xmlns="http://www.w3.org/2000/svg">
<path d="M14.3825 34.9277C14.3825 35.1035 14.1831 35.2441 13.9317 35.2441C13.6456 35.2705 13.4462 35.1299 13.4462 34.9277C13.4462 34.7519 13.6456 34.6113 13.897 34.6113C14.1571 34.585 14.3825 34.7256 14.3825 34.9277ZM11.6863 34.5322C11.6256 34.708 11.799 34.9102 12.0591 34.9629C12.2845 35.0508 12.5446 34.9629 12.5966 34.7871C12.6486 34.6113 12.4839 34.4092 12.2238 34.3301C11.9984 34.2686 11.747 34.3564 11.6863 34.5322ZM15.5181 34.3828C15.2667 34.4443 15.0933 34.6113 15.1194 34.8135C15.1454 34.9893 15.3708 35.1035 15.6308 35.042C15.8823 34.9805 16.0556 34.8135 16.0296 34.6377C16.0036 34.4707 15.7696 34.3564 15.5181 34.3828ZM21.2226 0.703125C9.19819 0.703125 0 9.95801 0 22.1484C0 31.8955 6.05121 40.2363 14.6946 43.1719C15.8042 43.374 16.1944 42.6797 16.1944 42.1084C16.1944 41.5635 16.1683 38.5576 16.1683 36.7119C16.1683 36.7119 10.0998 38.0303 8.8254 34.0928C8.8254 34.0928 7.8371 31.5352 6.41532 30.876C6.41532 30.876 4.43004 29.4961 6.55403 29.5225C6.55403 29.5225 8.7127 29.6982 9.9004 31.79C11.799 35.1826 14.9806 34.207 16.2204 33.6269C16.4198 32.2207 16.9833 31.2451 17.6075 30.665C12.7613 30.1201 7.87177 29.4082 7.87177 20.9531C7.87177 18.5361 8.53065 17.3232 9.91774 15.7764C9.69234 15.2051 8.95544 12.8496 10.1431 9.80859C11.955 9.2373 16.125 12.1816 16.125 12.1816C17.8589 11.6895 19.7228 11.4346 21.5694 11.4346C23.4159 11.4346 25.2798 11.6895 27.0137 12.1816C27.0137 12.1816 31.1837 9.22851 32.9956 9.80859C34.1833 12.8584 33.4464 15.2051 33.221 15.7764C34.6081 17.332 35.4577 18.5449 35.4577 20.9531C35.4577 29.4346 30.3514 30.1113 25.5052 30.665C26.3028 31.3594 26.979 32.6777 26.979 34.7432C26.979 37.7051 26.953 41.3701 26.953 42.0908C26.953 42.6621 27.3518 43.3564 28.4528 43.1543C37.1222 40.2363 43 31.8955 43 22.1484C43 9.95801 33.247 0.703125 21.2226 0.703125ZM8.42661 31.0166C8.31391 31.1045 8.33992 31.3066 8.4873 31.4736C8.62601 31.6143 8.8254 31.6758 8.9381 31.5615C9.05081 31.4736 9.0248 31.2715 8.87742 31.1045C8.73871 30.9639 8.53931 30.9023 8.42661 31.0166ZM7.49032 30.3047C7.42964 30.4189 7.51633 30.5596 7.68972 30.6475C7.82843 30.7353 8.00181 30.709 8.0625 30.5859C8.12319 30.4717 8.03649 30.3311 7.8631 30.2432C7.68972 30.1904 7.55101 30.2168 7.49032 30.3047ZM10.2992 33.4336C10.1605 33.5478 10.2125 33.8115 10.4119 33.9785C10.6113 34.1807 10.8627 34.207 10.9754 34.0664C11.0881 33.9521 11.0361 33.6885 10.8627 33.5215C10.672 33.3193 10.4119 33.293 10.2992 33.4336ZM9.31089 32.1416C9.17218 32.2295 9.17218 32.458 9.31089 32.6602C9.4496 32.8623 9.68367 32.9502 9.79637 32.8623C9.93508 32.748 9.93508 32.5195 9.79637 32.3174C9.675 32.1152 9.4496 32.0273 9.31089 32.1416Z" fill="white"/>
</svg>
