<svg width="75" height="75" viewBox="0 0 75 75" fill="none" xmlns="http://www.w3.org/2000/svg">
<g clip-path="url(#clip0)">
<path d="M59.3793 60.6413L43.9255 54.7939V51.0612C48.0281 49.1095 51.1109 45.35 52.1374 40.8185H53.6288C55.8664 40.8185 57.6869 38.998 57.6869 36.7604V34.6888C57.6869 33.4997 57.1728 32.4284 56.3552 31.6856V26.8462C56.3552 26.2395 55.8634 25.7476 55.2565 25.7476H51.4091H31.288C30.6813 25.7476 30.1894 26.2395 30.1894 26.8462C30.1894 27.4529 30.6813 27.9448 31.288 27.9448H50.3106V37.5003C50.3106 44.5642 44.5638 50.3111 37.4999 50.3111C30.4359 50.3111 24.6891 44.5642 24.6891 37.5003V27.9448H26.1596C26.7664 27.9448 27.2583 27.4529 27.2583 26.8462C27.2583 26.2395 26.7664 25.7476 26.1596 25.7476H23.5906H19.7432C19.1364 25.7476 18.6445 26.2395 18.6445 26.8462V31.6854C17.8269 32.4284 17.3128 33.4997 17.3128 34.6888V36.7604C17.3128 38.998 19.1333 40.8185 21.3709 40.8185H22.8623C23.889 45.35 26.9716 49.1095 31.0743 51.0612V54.7939L15.6205 60.6413C11.7649 62.1001 9.17432 65.8502 9.17432 69.9725V73.9014C9.17432 74.5081 9.66621 75 10.2729 75H45.1903C45.7972 75 46.2889 74.5081 46.2889 73.9014C46.2889 73.2946 45.7972 72.8027 45.1903 72.8027H20.8418V69.4622C20.8418 68.8554 20.3499 68.3635 19.7432 68.3635C19.1364 68.3635 18.6445 68.8554 18.6445 69.4622V72.8027H11.3716V69.9725C11.3716 66.7579 13.3916 63.8339 16.3982 62.6963L32.5617 56.5803C32.9829 56.421 33.2716 56.0032 33.2716 55.5527V51.9007C34.6134 52.2954 36.0322 52.5081 37.5 52.5081C38.9678 52.5081 40.3866 52.2952 41.7284 51.9006V55.5526C41.7284 56.003 42.0168 56.4207 42.4383 56.5802L58.6018 62.6962C61.6082 63.8338 63.6283 66.7578 63.6283 69.9724V72.8027H56.3553V69.4622C56.3553 68.8554 55.8636 68.3635 55.2567 68.3635C54.6498 68.3635 54.1581 68.8554 54.1581 69.4622V72.8027H50.3172C49.7103 72.8027 49.2186 73.2946 49.2186 73.9014C49.2186 74.5081 49.7103 75 50.3172 75H64.7269C65.3338 75 65.8255 74.5081 65.8255 73.9014V69.9725C65.8254 65.85 63.235 62.1 59.3793 60.6413V60.6413ZM55.4896 36.7603C55.4896 37.7862 54.6549 38.621 53.6288 38.621H52.466C52.4935 38.2509 52.5078 37.8772 52.5078 37.5001V32.8279H53.6287C54.6548 32.8279 55.4894 33.6627 55.4894 34.6888V36.7603H55.4896ZM54.1579 30.6662C53.9846 30.6435 53.8082 30.6306 53.6288 30.6306H52.5079V27.9448H54.1581V30.6662H54.1579ZM20.8418 27.9448H22.4919V30.6306H21.3709C21.1915 30.6306 21.0151 30.6435 20.8418 30.6662V27.9448ZM21.3709 38.6212C20.3449 38.6212 19.5101 37.7864 19.5101 36.7604V34.6888C19.5101 33.6627 20.3449 32.8279 21.3709 32.8279H22.4919V37.5001C22.4919 37.8772 22.5063 38.2509 22.5337 38.621H21.3709V38.6212Z" fill="white"/>
<path d="M47.8582 63.6284H40.4596C40.2891 63.6284 40.1208 63.6681 39.9683 63.7444L37.5001 64.9786L35.032 63.7446C34.8795 63.6683 34.7114 63.6286 34.5407 63.6286H27.1421C26.5354 63.6286 26.0435 64.1205 26.0435 64.7272C26.0435 65.3339 26.5354 65.8258 27.1421 65.8258H34.2814L37.009 67.1896C37.1637 67.2669 37.332 67.3056 37.5003 67.3056C37.6686 67.3056 37.8371 67.2669 37.9916 67.1896L40.719 65.8258H47.8582C48.4651 65.8258 48.9568 65.3339 48.9568 64.7272C48.9568 64.1205 48.4649 63.6284 47.8582 63.6284V63.6284Z" fill="white"/>
<path d="M29.0832 14.6566C29.2976 14.8711 29.5787 14.9783 29.86 14.9783C30.1411 14.9783 30.4223 14.8711 30.6369 14.6565C31.066 14.2274 31.0658 13.5318 30.6368 13.1029L28.3775 10.8441C27.4213 9.88784 26.8947 8.61548 26.8947 7.26152C26.8947 5.90859 27.4213 4.63682 28.3775 3.68042C30.3521 1.70581 33.565 1.70596 35.5396 3.68042L36.7232 4.86401C37.1521 5.29292 37.8476 5.29307 38.277 4.86401L39.4605 3.68042C41.4349 1.70596 44.6481 1.70596 46.6225 3.68042C48.4534 5.51133 48.6047 8.36016 47.0477 10.3614C46.0819 10.3919 45.1729 10.7514 44.451 11.3875C43.696 10.7221 42.7362 10.3585 41.7207 10.3585C40.616 10.3585 39.5774 10.7887 38.7962 11.5698C37.184 13.1823 37.184 15.8058 38.7962 17.4183L39.4222 18.0442L37.5001 19.9654L34.2829 16.7487C33.8539 16.3197 33.1582 16.3197 32.7293 16.7489C32.3002 17.1779 32.3004 17.8736 32.7294 18.3025L36.7233 22.2957C36.9378 22.5101 37.2189 22.6173 37.5001 22.6173C37.7813 22.6173 38.0624 22.5101 38.2768 22.2958L40.9761 19.5977L43.6743 22.2959C43.8889 22.5105 44.17 22.6178 44.4513 22.6178C44.7324 22.6178 45.0136 22.5105 45.2282 22.2959L50.1062 17.4182C51.7185 15.8058 51.7185 13.1821 50.106 11.5695C49.8621 11.3256 49.593 11.1158 49.3047 10.9428C50.9624 8.14658 50.5768 4.52666 48.1767 2.12666C46.8047 0.755273 44.9813 0 43.0415 0C41.1018 0 39.2783 0.755273 37.9066 2.12681L37.5 2.53359L37.0932 2.12681C34.262 -0.704443 29.655 -0.704297 26.8238 2.12681C25.4525 3.49819 24.6973 5.32163 24.6973 7.26152C24.6973 9.20229 25.4524 11.0265 26.8238 12.3979L29.0832 14.6566ZM48.552 15.8646L44.451 19.9654L40.3501 15.8646C39.5944 15.1088 39.5944 13.8791 40.35 13.1234C40.7162 12.7573 41.203 12.5558 41.7207 12.5558C42.2383 12.5558 42.7251 12.7573 43.0912 13.1234L43.6739 13.7063C44.1031 14.1352 44.7987 14.1354 45.2275 13.7063L45.8104 13.1234C46.1766 12.7573 46.6633 12.5558 47.181 12.5558C47.6987 12.5558 48.1855 12.7573 48.5515 13.1234C49.3077 13.8791 49.3077 15.1088 48.552 15.8646V15.8646Z" fill="white"/>
</g>
<defs>
<clipPath id="clip0">
<rect width="75" height="75" fill="white"/>
</clipPath>
</defs>
</svg>
