<svg width="55" height="55" viewBox="0 0 55 55" fill="none" xmlns="http://www.w3.org/2000/svg">
<g clip-path="url(#clip0)">
<path d="M50.4883 19.3359H35.38C35.4278 18.806 35.4538 18.2693 35.4538 17.7267C35.4538 7.95215 27.5013 0 17.7267 0C14.6132 0 11.5504 0.819092 8.86944 2.36832C8.35583 2.66499 8.18001 3.3221 8.47668 3.83572C8.77377 4.34975 9.43089 4.52515 9.9445 4.22848C12.299 2.86766 14.99 2.14844 17.7267 2.14844C26.3167 2.14844 33.3054 9.13673 33.3054 17.7267C33.3054 26.3167 26.3167 33.3054 17.7267 33.3054C14.131 33.3054 10.7531 32.1141 7.95803 29.8608C7.67773 29.635 7.30637 29.5674 6.96815 29.6711L4.11686 30.4168L5.23388 27.962C5.39459 27.6095 5.35263 27.1983 5.12478 26.8848C3.17776 24.2106 2.14844 21.0438 2.14844 17.7267C2.14844 14.9828 2.87144 12.2851 4.23939 9.92561C4.5369 9.412 4.36192 8.75488 3.84872 8.45737C3.33553 8.15987 2.67841 8.33443 2.38049 8.84804C0.823288 11.5344 0 14.6048 0 17.7267C0 21.2888 1.04359 24.6999 3.02418 27.6309L1.2257 31.5824C1.05366 31.9597 1.1145 32.402 1.38138 32.7192C1.64825 33.0364 2.07375 33.1715 2.4749 33.0666L7.04327 31.8724C10.1056 34.1857 13.8776 35.4538 17.7267 35.4538C18.5647 35.4538 19.3884 35.3938 20.1953 35.2809V44.6875C20.1953 47.175 22.2191 49.1992 24.7066 49.1992H39.8997L46.6928 54.757C46.8884 54.9173 47.1297 54.9996 47.373 54.9996C47.5296 54.9996 47.6865 54.9656 47.8329 54.8963C48.2081 54.7184 48.4473 54.3408 48.4473 53.9254V49.1992H50.4883C52.9762 49.1992 55 47.175 55 44.6875V23.8477C55 21.3597 52.9762 19.3359 50.4883 19.3359V19.3359ZM52.8516 44.6875C52.8516 45.9904 51.7916 47.0508 50.4883 47.0508H47.373C46.7797 47.0508 46.2988 47.5317 46.2988 48.125V51.6586L40.9932 47.3177C40.7007 47.0508 40.4448 47.0508 39.8695 47.0508H24.7066C23.4037 47.0508 22.3438 45.9904 22.3438 44.6875V34.8424C28.698 33.1266 33.6486 27.9595 35.0514 21.4844H50.4883C51.7916 21.4844 52.8516 22.5443 52.8516 23.8477V44.6875Z" fill="white"/>
<path d="M42.9433 37.4478C43.3075 37.2762 43.5601 36.9065 43.5601 36.4768C43.5601 35.8839 43.0792 35.4026 42.4859 35.4026H42.0461L38.5818 27.5071C38.4101 27.1164 38.0241 26.8643 37.5978 26.8643C37.1714 26.8643 36.7854 27.1164 36.6142 27.5071L33.1498 35.4026H32.7101C32.1167 35.4026 31.6359 35.8839 31.6359 36.4768C31.6359 36.9065 31.8885 37.2762 32.2527 37.4478L30.9624 40.3885C30.724 40.9319 30.9712 41.5655 31.5142 41.8039C32.0576 42.0422 32.6912 41.7951 32.9295 41.2517L34.5534 37.5511H40.6425L42.2664 41.2517C42.4431 41.6545 42.8371 41.8945 43.2508 41.8945C43.3948 41.8945 43.5412 41.8656 43.6818 41.8039C44.2248 41.5655 44.4723 40.9319 44.2336 40.3885L42.9433 37.4478ZM35.4959 35.4026L37.5978 30.6123L39.6996 35.4026H35.4959Z" fill="white"/>
<path d="M5.95117 7.02515C6.23357 7.02515 6.51052 6.91017 6.71068 6.71043C6.91042 6.5107 7.02539 6.23375 7.02539 5.95093C7.02539 5.66853 6.91042 5.39158 6.71068 5.19142C6.51052 4.99168 6.23357 4.87671 5.95117 4.87671C5.66751 4.87671 5.3914 4.99168 5.19167 5.19142C4.99193 5.39158 4.87695 5.66853 4.87695 5.95093C4.87695 6.23375 4.99193 6.5107 5.19167 6.71043C5.3914 6.91059 5.66835 7.02515 5.95117 7.02515Z" fill="white"/>
<path d="M11.3144 24.2643C10.7941 24.5497 10.6036 25.2026 10.8889 25.7229C11.0845 26.0792 11.4525 26.281 11.8318 26.281C12.0063 26.281 12.1834 26.2382 12.3475 26.1484C14.7431 24.8346 16.586 22.791 17.664 20.3812C18.7425 22.791 20.585 24.8346 22.9806 26.1484C23.1447 26.2382 23.3217 26.281 23.4963 26.281C23.8756 26.281 24.2436 26.0792 24.4392 25.7229C24.7245 25.2026 24.534 24.5497 24.0137 24.2643C21.2094 22.7264 19.3219 19.9779 18.8532 16.8723H23.6226C24.2159 16.8723 24.6968 16.3915 24.6968 15.7981C24.6968 15.2048 24.2159 14.7239 23.6226 14.7239H18.7383V10.2474C18.7383 9.6541 18.2574 9.17322 17.664 9.17322C17.0707 9.17322 16.5898 9.6541 16.5898 10.2474V14.7239H12.7092C12.1159 14.7239 11.635 15.2048 11.635 15.7981C11.635 16.3915 12.1159 16.8723 12.7092 16.8723H16.4748C16.0061 19.9779 14.1187 22.7268 11.3144 24.2643Z" fill="white"/>
</g>
<defs>
<clipPath id="clip0">
<rect width="55" height="55" fill="white"/>
</clipPath>
</defs>
</svg>
