<svg width="82" height="82" viewBox="0 0 82 82" fill="none" xmlns="http://www.w3.org/2000/svg">
<path d="M24.2274 22.053H9.06975C4.09999 22.053 0 26.65 0 32.3651V58.2076C0 58.9531 0.497009 59.4499 1.24236 59.4499H6.58471V77.7135C6.58471 80.0741 8.44832 81.9377 10.8089 81.9377H22.6119C24.9725 81.9377 26.8362 80.0741 26.8362 77.7135V59.5742H32.1785C32.924 59.5742 33.4209 59.0772 33.4209 58.3318V32.3651C33.4212 26.65 29.3212 22.053 24.2274 22.053ZM30.9363 57.0893H26.8363V43.9195C26.8363 43.174 26.3393 42.6772 25.594 42.6772C24.8486 42.6772 24.3516 43.1742 24.3516 43.9195V77.8377C24.3516 78.8316 23.6061 79.5771 22.6122 79.5771H17.891V59.2014C17.891 58.4559 17.394 57.959 16.6486 57.959C15.9033 57.959 15.4063 58.4561 15.4063 59.2014V79.5771H10.8091C9.81526 79.5771 9.06975 78.8316 9.06975 77.8377V43.9197C9.06975 43.1742 8.57274 42.6773 7.82739 42.6773C7.08204 42.6773 6.58504 43.1744 6.58504 43.9197V57.0894H2.48488V32.3651C2.48488 28.0166 5.46677 24.5379 9.06975 24.5379H24.2274C27.9546 24.5379 30.9365 28.0166 30.9365 32.3651V57.0893H30.9363Z" fill="white"/>
<path d="M16.6486 20.438C22.2394 20.438 26.8364 15.841 26.8364 10.2501C26.8364 4.65926 22.2394 0.0622559 16.6486 0.0622559C11.0577 0.0622559 6.58496 4.65926 6.58496 10.2501C6.58496 15.841 11.0577 20.438 16.6486 20.438ZM16.6486 2.54697C20.8728 2.54697 24.3515 6.0257 24.3515 10.2499C24.3515 14.4742 20.8728 17.9529 16.6486 17.9529C12.4243 17.9529 8.94559 14.4742 8.94559 10.2499C9.06984 6.02586 12.4243 2.54697 16.6486 2.54697Z" fill="white"/>
<path d="M67.4641 35.8441C68.0854 39.3229 71.0671 41.932 74.6703 41.932C78.7703 41.932 82.0007 38.7018 82.0007 34.6016C82.0007 30.5016 78.6462 27.2712 74.6703 27.2712C71.0673 27.2712 68.0854 29.8804 67.4641 33.3591H53.7974V16.2138H67.4641C68.0854 19.6925 71.0671 22.3016 74.6703 22.3016C78.7703 22.3016 82.0007 19.0714 82.0007 14.9713C82.0007 10.8713 78.6462 7.64087 74.6703 7.64087C71.0673 7.64087 68.0854 10.25 67.4641 13.7287H52.555C51.8095 13.7287 51.3127 14.2257 51.3127 14.9711V43.0499H46.2187V29.6317C46.2187 28.8862 45.7217 28.3893 44.9763 28.3893H37.1491C36.4036 28.3893 35.9067 28.8863 35.9067 29.6317C35.9067 30.3772 36.4037 30.874 37.1491 30.874H43.734V57.7104H37.1491C36.4036 57.7104 35.9067 58.2074 35.9067 58.9527C35.9067 59.6981 36.4037 60.1951 37.1491 60.1951H44.9763C45.7218 60.1951 46.2187 59.6981 46.2187 58.9527V45.5345H51.3127V73.7376C51.3127 74.4831 51.8097 74.9799 52.555 74.9799H67.4641C68.0854 78.4587 71.0671 81.0678 74.6703 81.0678C78.7703 81.0678 82.0007 77.8376 82.0007 73.7374C82.0007 69.6373 78.6462 66.407 74.6703 66.407C71.0673 66.407 68.0854 69.0162 67.4641 72.4949H53.7974V55.3501H67.4641C68.0854 58.8288 71.0671 61.4379 74.6703 61.4379C78.7703 61.4379 82.0007 58.2077 82.0007 54.1076C82.0007 50.0076 78.6462 46.7772 74.6703 46.7772C71.0673 46.7772 68.0854 49.3863 67.4641 52.865H53.7974V35.8441H67.4641ZM74.6703 29.7561C77.4037 29.7561 79.5158 31.8682 79.5158 34.6016C79.5158 37.335 77.2794 39.4471 74.6703 39.4471C71.9369 39.4471 69.8248 37.335 69.8248 34.6016C69.8248 31.8682 71.9369 29.7561 74.6703 29.7561ZM74.6703 10.1259C77.4037 10.1259 79.5158 12.238 79.5158 14.9714C79.5158 17.7048 77.2794 19.8169 74.6703 19.8169C71.9369 19.8169 69.8248 17.7048 69.8248 14.9714C69.8248 12.238 71.9369 10.1259 74.6703 10.1259ZM74.6703 68.8926C77.4037 68.8926 79.5158 71.0047 79.5158 73.7381C79.5158 76.4715 77.2794 78.5836 74.6703 78.5836C71.9369 78.5836 69.8248 76.4715 69.8248 73.7381C69.8248 71.0047 71.9369 68.8926 74.6703 68.8926ZM74.6703 49.2622C77.4037 49.2622 79.5158 51.3743 79.5158 54.1077C79.5158 56.8411 77.2794 58.9532 74.6703 58.9532C71.9369 58.9532 69.8248 56.8411 69.8248 54.1077C69.8248 51.3743 71.9369 49.2622 74.6703 49.2622Z" fill="white"/>
</svg>
