<svg width="48" height="48" viewBox="0 0 48 48" fill="none" xmlns="http://www.w3.org/2000/svg">
<g clip-path="url(#clip0)">
<path d="M45.6778 26.1489C45.0271 26.1489 44.5933 26.5828 44.5933 27.2334V41.3318C44.5933 41.9825 44.1595 42.4163 43.5089 42.4163H4.467C3.81629 42.4163 3.38254 41.9825 3.38254 41.3318V27.2334C3.38254 26.5827 2.9487 26.1489 2.29808 26.1489C1.64746 26.1489 1.21362 26.5828 1.21362 27.2334V41.3318C1.21362 43.1755 2.62344 44.5853 4.4671 44.5853H43.5089C45.3525 44.5853 46.7624 43.1755 46.7624 41.3318V27.2334C46.7624 26.5827 46.3285 26.1489 45.6778 26.1489Z" fill="#C0C0C0"/>
<path d="M44.5934 10.9663H3.38262C1.53897 10.9663 0.12915 12.3761 0.12915 14.2198V21.1606C0.12915 22.6788 1.21361 23.9802 2.62352 24.3056L19.6501 28.1013V31.5716C19.6501 32.2223 20.0839 32.6561 20.7345 32.6561H27.2415C27.8922 32.6561 28.326 32.2222 28.326 31.5716V28.1013L45.3525 24.3056C46.7624 23.9802 47.8469 22.6788 47.8469 21.1605V14.2197C47.8469 12.3761 46.4371 10.9663 44.5934 10.9663ZM26.157 30.4871H21.8191V26.1492H26.157V30.4871ZM45.6779 21.1605C45.6779 21.7027 45.3525 22.1365 44.8103 22.2449L28.326 25.9322V25.0647C28.326 24.4139 27.8921 23.9802 27.2415 23.9802H20.7345C20.0838 23.9802 19.6501 24.414 19.6501 25.0647V25.9322L3.16575 22.245C2.62352 22.1365 2.29816 21.7028 2.29816 21.1606V14.2198C2.29816 13.5691 2.732 13.1353 3.38262 13.1353H44.5934C45.2441 13.1353 45.6779 13.5692 45.6779 14.2198V21.1605Z" fill="#C0C0C0"/>
<path d="M29.4105 3.37451H18.5655C16.7218 3.37451 15.312 4.78433 15.312 6.62798V7.71244C15.312 8.36316 15.7459 8.7969 16.3965 8.7969C17.0471 8.7969 17.4809 8.36306 17.4809 7.71244V6.62798C17.4809 5.97727 17.9148 5.54352 18.5654 5.54352H29.4104C30.0611 5.54352 30.4948 5.97736 30.4948 6.62798V7.71244C30.4948 8.36316 30.9287 8.7969 31.5793 8.7969C32.23 8.7969 32.6637 8.36306 32.6637 7.71244V6.62798C32.6639 4.78433 31.2541 3.37451 29.4105 3.37451Z" fill="#C0C0C0"/>
</g>
<defs>
<clipPath id="clip0">
<rect width="47.7177" height="47.7177" fill="white" transform="translate(0.12915 0.121094)"/>
</clipPath>
</defs>
</svg>
