<svg width="71" height="67" viewBox="0 0 71 67" fill="none" xmlns="http://www.w3.org/2000/svg">
<path d="M57.2025 25.8088C57.3583 24.9737 57.4372 24.126 57.4383 23.2764C57.4288 15.386 51.0247 8.99732 43.1343 9.00685C37.1277 9.01407 31.7672 12.7775 29.72 18.4244C26.0545 16.9653 21.9002 18.7538 20.441 22.4192C20.3147 22.7365 20.2113 23.0624 20.1317 23.3944C14.2789 24.2697 10.244 29.7239 11.1193 35.5766C11.9043 40.8257 16.4137 44.7091 21.7211 44.7069H30.6503C31.6367 44.7069 32.4362 43.9073 32.4362 42.921C32.4362 41.9347 31.6367 41.1351 30.6503 41.1351H21.7211C17.7758 41.1351 14.5776 37.9369 14.5776 33.9916C14.5776 30.0464 17.7758 26.8481 21.7211 26.8481C22.7074 26.8481 23.507 26.0486 23.507 25.0622C23.5102 23.0897 25.1119 21.4932 27.0845 21.4964C28.0174 21.498 28.9127 21.8644 29.5788 22.5174C30.2813 23.2097 31.412 23.2014 32.1043 22.499C32.3642 22.2352 32.5357 21.8972 32.5951 21.5316C33.5645 15.6996 39.078 11.7578 44.9099 12.7272C50.7418 13.6966 54.6836 19.2101 53.7142 25.042C53.6565 25.3898 53.5814 25.7344 53.4897 26.0747C53.2844 26.8202 53.5821 27.6131 54.2273 28.0392C57.5147 30.2204 58.4113 34.6537 56.23 37.9411C54.9097 39.9308 52.6827 41.1292 50.2948 41.1349H44.9372C43.9509 41.1349 43.1513 41.9345 43.1513 42.9208C43.1513 43.9071 43.9509 44.7067 44.9372 44.7067H50.2948C56.2126 44.7011 61.0055 39.8992 60.9998 33.9814C60.9969 30.8316 59.6081 27.8425 57.2025 25.8088Z" fill="#C0C0C0"/>
<path d="M47.9455 47.0152C47.2534 46.3468 46.1562 46.3468 45.4642 47.0152L39.5798 52.8961V26.8474C39.5798 25.8611 38.7802 25.0615 37.7939 25.0615C36.8076 25.0615 36.008 25.8611 36.008 26.8474V52.896L30.1271 47.0151C29.4176 46.3299 28.2871 46.3496 27.6019 47.0589C26.9335 47.751 26.9335 48.8482 27.6019 49.5403L36.5312 58.4695C37.2277 59.1678 38.3585 59.1693 39.0568 58.4727C39.0578 58.4716 39.0589 58.4706 39.06 58.4695L47.9893 49.5403C48.6746 48.8309 48.6549 47.7004 47.9455 47.0152Z" fill="#C0C0C0"/>
<rect x="1.5" y="1.5" width="68" height="64" stroke="#C0C0C0" stroke-width="3"/>
</svg>
