<svg width="53" height="52" viewBox="0 0 53 52" fill="none" xmlns="http://www.w3.org/2000/svg">
<g clip-path="url(#clip0)">
<path d="M48.216 32.8043C47.5058 32.8043 46.9302 33.3799 46.9302 34.0901V45.5069C46.9277 47.6366 45.2024 49.3624 43.0727 49.3644H6.9936C4.86395 49.3624 3.13863 47.6366 3.13611 45.5069V11.9995C3.13863 9.87031 4.86395 8.14448 6.9936 8.14197H18.4104C19.1206 8.14197 19.6962 7.56636 19.6962 6.85614C19.6962 6.14642 19.1206 5.57031 18.4104 5.57031H6.9936C3.44451 5.57433 0.568471 8.45037 0.564453 11.9995V45.5074C0.568471 49.0565 3.44451 51.9325 6.9936 51.9366H43.0727C46.6218 51.9325 49.4978 49.0565 49.5018 45.5074V34.0901C49.5018 33.3799 48.9262 32.8043 48.216 32.8043Z" fill="#C0C0C0"/>
<path d="M48.9925 2.2617C46.7328 0.00195783 43.0692 0.00195783 40.8094 2.2617L17.8694 25.2017C17.7122 25.3589 17.5987 25.5538 17.5394 25.7678L14.5228 36.6587C14.3987 37.1052 14.5248 37.5834 14.8522 37.9114C15.1802 38.2388 15.6584 38.3649 16.1049 38.2414L26.9958 35.2242C27.2098 35.1649 27.4047 35.0514 27.5619 34.8942L50.5014 11.9537C52.7576 9.6924 52.7576 6.0318 50.5014 3.77055L48.9925 2.2617ZM20.6711 26.0375L39.4458 7.26238L45.5007 13.3173L26.7256 32.0925L20.6711 26.0375ZM19.4616 28.4645L24.2991 33.3025L17.6077 35.1564L19.4616 28.4645ZM48.6831 10.1354L47.3195 11.4991L41.264 5.44363L42.6282 4.07995C43.8834 2.82476 45.9186 2.82476 47.1738 4.07995L48.6831 5.58879C49.9363 6.84549 49.9363 8.87921 48.6831 10.1354Z" fill="#C0C0C0"/>
</g>
<defs>
<clipPath id="clip0">
<rect width="51.629" height="51.629" fill="white" transform="translate(0.564453 0.371094)"/>
</clipPath>
</defs>
</svg>
