<svg width="55" height="56" viewBox="0 0 55 56" fill="none" xmlns="http://www.w3.org/2000/svg">
<g clip-path="url(#clip0)">
<path d="M31.2576 55.4836H23.5003C21.9168 55.4836 20.5159 54.3588 20.1737 52.8096L19.1219 48.1369C17.3696 47.4251 15.7041 46.46 14.1572 45.2553L9.6054 46.6904C8.05848 47.1787 6.37467 46.5147 5.59893 45.1344L1.72936 38.4402C0.939933 37.0393 1.20688 35.303 2.36592 34.2101L5.88413 30.9771C5.76321 30.0075 5.70388 29.0446 5.70388 28.1046C5.70388 27.1646 5.76321 26.2018 5.88413 25.2321L2.37733 22.0082C1.2046 20.9062 0.939933 19.1699 1.72252 17.7782L5.60578 11.0612C6.37467 9.68766 8.06989 9.0374 9.60083 9.51654L14.1572 10.9539C15.7064 9.75154 17.3696 8.78415 19.1196 8.07229L20.176 3.39504C20.5159 1.85041 21.9146 0.725586 23.5003 0.725586H31.2576C32.8411 0.725586 34.242 1.85041 34.5842 3.3996L35.6383 8.07229C37.3883 8.78415 39.0515 9.74926 40.6007 10.9539L45.1525 9.51654C46.6903 9.04197 48.381 9.68765 49.159 11.0726L53.0285 17.769C53.818 19.1722 53.551 20.9062 52.392 21.9991L48.8738 25.2321C48.9947 26.2018 49.054 27.1646 49.054 28.1046C49.054 29.0446 48.9947 30.0075 48.8738 30.9771L52.3806 34.201C52.3851 34.2033 52.3897 34.2079 52.392 34.2101C53.5533 35.303 53.818 37.0393 53.0354 38.4311L49.1521 45.1481C48.381 46.5216 46.6971 47.1673 45.1571 46.695L40.6007 45.2576C39.0538 46.46 37.3883 47.4274 35.636 48.1392L34.5819 52.8165C34.242 54.3588 32.8434 55.4836 31.2576 55.4836ZM14.3967 42.8437C14.6568 42.8437 14.9169 42.9326 15.1223 43.1038C16.7764 44.4681 18.5834 45.5177 20.4931 46.2227C20.8582 46.3573 21.1274 46.6653 21.2118 47.0418L22.4005 52.3122C22.5146 52.8302 22.9755 53.2021 23.5003 53.2021H31.2576C31.7801 53.2021 32.2433 52.8302 32.3551 52.3145L33.5438 47.0395C33.6282 46.663 33.8974 46.355 34.2602 46.2227C36.1722 45.5154 37.9792 44.4659 39.6311 43.1038C39.93 42.8573 40.3384 42.7775 40.7011 42.8961L45.8347 44.5161C46.3572 44.6735 46.9162 44.4681 47.1672 44.0164L51.0504 37.2994C51.3082 36.8385 51.2192 36.2476 50.8268 35.8757L46.8842 32.2525C46.6036 31.997 46.469 31.6183 46.5283 31.2441C46.6926 30.1831 46.7724 29.1268 46.7724 28.1046C46.7724 27.0825 46.6926 26.0261 46.5352 24.9652C46.4781 24.591 46.6104 24.2122 46.8911 23.9567L50.8382 20.329C51.2238 19.9662 51.3128 19.373 51.0481 18.8984L47.1786 12.202C46.9185 11.7388 46.3595 11.5312 45.8347 11.6954L40.7057 13.3131C40.3429 13.4249 39.9345 13.3519 39.6356 13.1055C37.9815 11.7434 36.1745 10.6938 34.2625 9.98654C33.8997 9.85193 33.6305 9.54391 33.5461 9.16745L32.3574 3.89699C32.2433 3.37907 31.7824 3.00717 31.2576 3.00717H23.5003C22.9755 3.00717 22.5146 3.37907 22.4005 3.89243L21.2118 9.16745C21.1274 9.54391 20.8582 9.85193 20.4954 9.98654C18.5834 10.6938 16.7764 11.7434 15.1223 13.1055C14.8234 13.3519 14.415 13.4272 14.0522 13.3131L8.91864 11.6932C8.403 11.5335 7.83945 11.7411 7.58619 12.1906L3.70293 18.9098C3.44511 19.373 3.5341 19.9662 3.93109 20.3381L7.86911 23.9567C8.14974 24.2122 8.28436 24.591 8.22504 24.9652C8.06533 26.0261 7.98547 27.0825 7.98547 28.1046C7.98547 29.1268 8.06533 30.1831 8.22276 31.2441C8.2798 31.6183 8.14746 31.997 7.86683 32.2525L3.91968 35.8803C3.5341 36.243 3.44511 36.8362 3.70978 37.3108L7.57935 44.0073C7.83717 44.4681 8.40072 44.6826 8.9232 44.5161L14.0522 42.8984C14.164 42.8619 14.2804 42.8437 14.3967 42.8437Z" fill="#C0C0C0"/>
<path d="M29.6605 41.7941H25.0974C23.9999 41.7941 22.8158 40.9522 22.8158 39.1019V36.0902C22.8158 34.7532 22.2385 33.5302 21.2734 32.8207C18.604 30.8539 17.0479 27.7145 17.1141 24.4176C17.219 18.9829 21.7548 14.495 27.2284 14.4151C29.948 14.3535 32.6312 15.4236 34.6093 17.3721C36.5669 19.3023 37.6461 21.8759 37.6461 24.6161C37.6461 27.8605 36.1448 30.8403 33.5255 32.7887C32.5353 33.528 31.9421 34.7669 31.9421 36.1061V39.5126C31.9421 40.772 30.92 41.7941 29.6605 41.7941ZM27.3789 16.6967C27.3379 16.6967 27.2991 16.6967 27.258 16.6967C23.0759 16.756 19.4732 20.313 19.3957 24.4632C19.3455 27.0186 20.5524 29.4553 22.6264 30.9817C24.1733 32.1202 25.0974 34.0299 25.0974 36.0902V39.1019C25.0974 39.4418 25.1795 39.5536 25.1795 39.5536L29.6605 39.5126V36.1061C29.6605 34.0504 30.596 32.1271 32.1634 30.9589C34.1986 29.4462 35.3645 27.135 35.3645 24.6184C35.3645 22.4919 34.5272 20.4978 33.0076 18.9988C31.4995 17.5112 29.5054 16.6967 27.3789 16.6967Z" fill="#C0C0C0"/>
<path d="M30.8015 37.2308H23.9567C23.327 37.2308 22.8159 36.7197 22.8159 36.09C22.8159 35.4603 23.327 34.9492 23.9567 34.9492H30.8015C31.4312 34.9492 31.9423 35.4603 31.9423 36.09C31.9423 36.7197 31.4312 37.2308 30.8015 37.2308Z" fill="#C0C0C0"/>
</g>
<defs>
<clipPath id="clip0">
<rect width="54.7581" height="54.7581" fill="white" transform="translate(0 0.725586)"/>
</clipPath>
</defs>
</svg>
