<svg width="54" height="53" viewBox="0 0 54 53" fill="none" xmlns="http://www.w3.org/2000/svg">
<g clip-path="url(#clip0)">
<path d="M26.6143 25.2467C30.0827 25.2467 33.0857 24.0027 35.5401 21.5484C37.9937 19.0944 39.238 16.0918 39.238 12.623C39.238 9.15532 37.9941 6.15233 35.5397 3.69756C33.0853 1.24398 30.0823 0 26.6143 0C23.1454 0 20.1428 1.24398 17.6888 3.69796C15.2349 6.15193 13.9905 9.15492 13.9905 12.623C13.9905 16.0918 15.2349 19.0948 17.6888 21.5488C20.1436 24.0023 23.1466 25.2467 26.6143 25.2467ZM19.8609 5.86963C21.7439 3.98666 23.9527 3.07137 26.6143 3.07137C29.2754 3.07137 31.4846 3.98666 33.368 5.86963C35.251 7.753 36.1667 9.96225 36.1667 12.623C36.1667 15.2845 35.251 17.4933 33.368 19.3767C31.4846 21.2601 29.2754 22.1753 26.6143 22.1753C23.9535 22.1753 21.7447 21.2597 19.8609 19.3767C17.9775 17.4937 17.0619 15.2845 17.0619 12.623C17.0619 9.96225 17.9775 7.753 19.8609 5.86963Z" fill="black"/>
<path d="M48.7026 40.3019C48.6318 39.2806 48.4886 38.1666 48.2779 36.9902C48.0652 35.805 47.7913 34.6845 47.4634 33.6605C47.1243 32.602 46.6641 31.5568 46.0942 30.5551C45.5036 29.5155 44.8095 28.6102 44.0305 27.8652C43.216 27.0859 42.2187 26.4593 41.0655 26.0023C39.9163 25.5476 38.6427 25.3173 37.2804 25.3173C36.7454 25.3173 36.2279 25.5368 35.2287 26.1874C34.6137 26.5885 33.8943 27.0523 33.0914 27.5653C32.4048 28.0028 31.4747 28.4127 30.3259 28.7837C29.2051 29.1464 28.0671 29.3303 26.9434 29.3303C25.8206 29.3303 24.6826 29.1464 23.561 28.7837C22.4134 28.4131 21.4829 28.0032 20.7975 27.5657C20.0022 27.0575 19.2824 26.5937 18.6582 26.187C17.6597 25.5364 17.1423 25.3169 16.6073 25.3169C15.2445 25.3169 13.9714 25.5476 12.8226 26.0027C11.6701 26.4589 10.6725 27.0855 9.85715 27.8656C9.07821 28.611 8.38404 29.5159 7.79384 30.5551C7.22483 31.5568 6.76418 32.6016 6.42509 33.6609C6.0976 34.6849 5.8237 35.805 5.61097 36.9902C5.39984 38.165 5.25708 39.2794 5.18631 40.3031C5.11673 41.3039 5.08154 42.3456 5.08154 43.398C5.08154 46.1339 5.95125 48.3488 7.66628 49.9822C9.36011 51.5941 11.601 52.4114 14.3269 52.4114H39.5632C42.2883 52.4114 44.5292 51.5941 46.2234 49.9822C47.9388 48.35 48.8085 46.1343 48.8085 43.3976C48.8081 42.3416 48.7725 41.2999 48.7026 40.3019ZM44.1057 47.757C42.9865 48.8222 41.5006 49.34 39.5628 49.34H14.3269C12.3887 49.34 10.9028 48.8222 9.78397 47.7574C8.68634 46.7125 8.15292 45.2862 8.15292 43.398C8.15292 42.4159 8.18531 41.4463 8.25008 40.5154C8.31326 39.6021 8.44242 38.5988 8.63396 37.5328C8.82309 36.4799 9.06381 35.4919 9.35012 34.5974C9.62483 33.7397 9.9995 32.8903 10.4641 32.0722C10.9076 31.2925 11.4178 30.6235 11.9808 30.0845C12.5075 29.5803 13.1712 29.1676 13.9534 28.8581C14.6767 28.5718 15.4897 28.4151 16.3722 28.3915C16.4797 28.4486 16.6713 28.5578 16.9816 28.7601C17.613 29.1716 18.3407 29.641 19.1452 30.1549C20.0521 30.7331 21.2206 31.2553 22.6165 31.7059C24.0436 32.1674 25.4991 32.4017 26.9438 32.4017C28.3886 32.4017 29.8445 32.1674 31.2708 31.7063C32.6679 31.2549 33.8359 30.7331 34.744 30.1541C35.5674 29.6278 36.2747 29.172 36.9061 28.7601C37.2164 28.5582 37.4079 28.4486 37.5155 28.3915C38.3984 28.4151 39.2113 28.5718 39.9351 28.8581C40.7168 29.1676 41.3806 29.5807 41.9072 30.0845C42.4703 30.6231 42.9805 31.2921 43.4239 32.0726C43.889 32.8903 44.2641 33.7401 44.5384 34.597C44.8251 35.4927 45.0662 36.4803 45.2549 37.5324C45.4461 38.6004 45.5756 39.6041 45.6388 40.5158V40.5166C45.704 41.4439 45.7368 42.4131 45.7372 43.398C45.7368 45.2866 45.2033 46.7125 44.1057 47.757Z" fill="black"/>
</g>
<defs>
<clipPath id="clip0">
<rect width="52.4113" height="52.4113" fill="white" transform="translate(0.782227)"/>
</clipPath>
</defs>
</svg>
