<svg width="46" height="51" viewBox="0 0 46 51" fill="none" xmlns="http://www.w3.org/2000/svg">
<path d="M42.7143 3.1875H3.27545C1.4683 3.1875 0 4.63184 0 6.40488V44.5951C0 46.3682 1.4683 47.8125 3.27545 47.8125H42.7143C44.5214 47.8125 46 46.3682 46 44.5951V6.40488C46 4.63184 44.5214 3.1875 42.7143 3.1875ZM13.9027 41.4375H7.08482V20.141H13.9129V41.4375H13.9027ZM10.4937 17.2324C8.3067 17.2324 6.54063 15.5092 6.54063 13.3975C6.54063 11.2857 8.3067 9.5625 10.4937 9.5625C12.6705 9.5625 14.4469 11.2857 14.4469 13.3975C14.4469 15.5191 12.6808 17.2324 10.4937 17.2324ZM39.4594 41.4375H32.6415V31.0781C32.6415 28.6078 32.5902 25.4303 29.0991 25.4303C25.5464 25.4303 25.0022 28.1197 25.0022 30.8988V41.4375H18.1844V20.141H24.725V23.0496H24.8174C25.7313 21.3762 27.9594 19.6131 31.2759 19.6131C38.1759 19.6131 39.4594 24.0258 39.4594 29.7633V41.4375Z" fill="white"/>
</svg>
